<svg width="774mm" height="256mm" viewBox="0 0 774 256" xmlns="http://www.w3.org/2000/svg" version="1.1" preserveAspectRatio="xMidYMid meet"><g id="svgGroup" stroke-linecap="round" fill-rule="evenodd" font-size="9pt" stroke="#000" stroke-width="0.25mm" fill="none" style="stroke:#000;stroke-width:0.25mm;fill:none"><path d="M 0 198 L 0 209 L 3 209 L 3 221 L 0 221 L 0 233 L 3 233 L 3 245 L 0 245 L 0 256 L 14 256 L 14 253 L 26 253 L 26 256 L 38 256 L 38 253 L 50 253 L 50 256 L 62 256 L 62 253 L 74 253 L 74 256 L 86 256 L 86 253 L 98 253 L 98 256 L 110 256 L 110 253 L 122 253 L 122 256 L 134 256 L 134 253 L 146 253 L 146 256 L 158 256 L 158 253 L 170 253 L 170 256 L 182 256 L 182 253 L 194 253 L 194 256 L 206 256 L 206 253 L 218 253 L 218 256 L 230 256 L 230 253 L 242 253 L 242 256 L 256 256 L 256 245 L 253 245 L 253 233 L 256 233 L 256 221 L 253 221 L 253 209 L 256 209 L 256 198 L 0 198 Z" id="front_outsideCutPath" stroke="#FF0000" stroke-width="0.05" style="stroke:#FF0000;stroke-width:0.05" vector-effect="non-scaling-stroke"/><path d="M 136.454 231.381 L 135.513 231.381 L 135.513 227.365 Q 135.513 226.881 135.373 226.554 A 1.118 1.118 0 0 0 135.168 226.232 Q 134.888 225.93 134.352 225.872 A 2.493 2.493 0 0 0 134.086 225.859 A 2.846 2.846 0 0 0 133.554 225.905 Q 133.257 225.962 133.029 226.087 A 1.326 1.326 0 0 0 132.659 226.385 A 1.537 1.537 0 0 0 132.392 226.852 Q 132.206 227.348 132.206 228.124 L 132.206 231.381 L 131.265 231.381 L 131.265 225.173 L 132.03 225.173 L 132.183 226.023 L 132.228 226.023 A 1.904 1.904 0 0 1 132.974 225.344 A 2.289 2.289 0 0 1 133.038 225.312 A 2.546 2.546 0 0 1 133.944 225.07 A 3.079 3.079 0 0 1 134.199 225.06 Q 134.943 225.06 135.443 225.298 A 1.69 1.69 0 0 1 135.887 225.601 Q 136.318 226.012 136.421 226.799 A 4.103 4.103 0 0 1 136.454 227.331 L 136.454 231.381 Z M 118.391 225.173 L 118.391 225.904 L 116.811 225.904 L 116.811 231.381 L 115.87 231.381 L 115.87 225.904 L 114.76 225.904 L 114.76 225.479 L 115.87 225.139 L 115.87 224.794 Q 115.87 222.818 117.36 222.548 A 2.858 2.858 0 0 1 117.87 222.505 A 3.028 3.028 0 0 1 118.298 222.538 Q 118.507 222.568 118.739 222.625 A 6.086 6.086 0 0 1 119.025 222.704 L 118.782 223.457 Q 118.395 223.332 118.089 223.296 A 2.022 2.022 0 0 0 117.853 223.281 A 1.268 1.268 0 0 0 117.547 223.316 A 0.814 0.814 0 0 0 117.066 223.635 A 1.088 1.088 0 0 0 116.922 223.925 Q 116.811 224.255 116.811 224.771 L 116.811 225.173 L 118.391 225.173 Z M 141.24 230.605 L 141.24 231.324 A 0.925 0.925 0 0 1 141.13 231.368 Q 140.994 231.413 140.789 231.446 A 4.075 4.075 0 0 1 140.524 231.481 Q 140.398 231.493 140.286 231.494 A 2.409 2.409 0 0 1 140.254 231.494 Q 138.818 231.494 138.527 230.287 A 2.955 2.955 0 0 1 138.453 229.597 L 138.453 225.904 L 137.564 225.904 L 137.564 225.451 L 138.453 225.06 L 138.85 223.735 L 139.393 223.735 L 139.393 225.173 L 141.194 225.173 L 141.194 225.904 L 139.393 225.904 L 139.393 229.557 A 1.893 1.893 0 0 0 139.421 229.89 Q 139.453 230.072 139.525 230.217 A 0.912 0.912 0 0 0 139.659 230.418 A 0.873 0.873 0 0 0 140.196 230.704 A 1.257 1.257 0 0 0 140.39 230.718 A 3.088 3.088 0 0 0 140.842 230.686 A 2.85 2.85 0 0 0 140.872 230.682 Q 141.093 230.646 141.227 230.609 A 1.412 1.412 0 0 0 141.24 230.605 Z M 123.098 225.128 L 122.967 226 A 4.144 4.144 0 0 0 122.669 225.945 Q 122.521 225.924 122.389 225.918 A 2.205 2.205 0 0 0 122.288 225.915 A 1.629 1.629 0 0 0 121.084 226.435 A 2.229 2.229 0 0 0 120.999 226.527 A 2.147 2.147 0 0 0 120.481 227.733 A 2.854 2.854 0 0 0 120.464 228.051 L 120.464 231.381 L 119.524 231.381 L 119.524 225.173 L 120.3 225.173 L 120.407 226.323 L 120.453 226.323 A 3.175 3.175 0 0 1 120.808 225.816 A 2.425 2.425 0 0 1 121.285 225.388 A 1.874 1.874 0 0 1 122.356 225.06 A 4.317 4.317 0 0 1 122.742 225.076 A 3.15 3.15 0 0 1 123.098 225.128 Z M 129.617 228.271 Q 129.617 229.789 128.852 230.642 A 2.507 2.507 0 0 1 127.377 231.441 A 3.651 3.651 0 0 1 126.74 231.494 A 3.019 3.019 0 0 1 125.862 231.371 A 2.618 2.618 0 0 1 125.261 231.103 A 2.545 2.545 0 0 1 124.333 230.116 A 3.091 3.091 0 0 1 124.265 229.982 A 3.478 3.478 0 0 1 123.972 229.033 A 4.704 4.704 0 0 1 123.913 228.271 Q 123.913 227.116 124.353 226.349 A 2.598 2.598 0 0 1 124.672 225.907 Q 125.431 225.06 126.779 225.06 A 3.159 3.159 0 0 1 127.707 225.19 A 2.461 2.461 0 0 1 128.85 225.927 Q 129.617 226.793 129.617 228.271 Z M 124.888 228.271 A 4.761 4.761 0 0 0 124.933 228.952 Q 124.983 229.297 125.088 229.577 A 1.973 1.973 0 0 0 125.363 230.084 A 1.541 1.541 0 0 0 126.367 230.675 A 2.335 2.335 0 0 0 126.762 230.707 A 2.184 2.184 0 0 0 127.339 230.635 A 1.52 1.52 0 0 0 128.164 230.087 A 2.018 2.018 0 0 0 128.479 229.475 Q 128.571 229.192 128.611 228.846 A 4.953 4.953 0 0 0 128.643 228.271 Q 128.643 227.088 128.164 226.473 A 1.547 1.547 0 0 0 127.203 225.899 A 2.371 2.371 0 0 0 126.751 225.859 A 2.238 2.238 0 0 0 126.194 225.924 A 1.498 1.498 0 0 0 125.358 226.465 Q 124.888 227.071 124.888 228.271 Z" id="front_labelLayer" stroke="#777777" fill="#777777" style="stroke:#777777;fill:#777777" vector-effect="non-scaling-stroke"/><path d="M 262 198 L 262 209 L 259 209 L 259 221 L 262 221 L 262 233 L 259 233 L 259 245 L 262 245 L 262 256 L 273 256 L 273 253 L 285 253 L 285 256 L 297 256 L 297 253 L 309 253 L 309 256 L 321 256 L 321 253 L 333 253 L 333 256 L 345 256 L 345 253 L 357 253 L 357 256 L 369 256 L 369 253 L 381 253 L 381 256 L 393 256 L 393 253 L 405 253 L 405 256 L 417 256 L 417 253 L 429 253 L 429 256 L 441 256 L 441 253 L 453 253 L 453 256 L 465 256 L 465 253 L 477 253 L 477 256 L 489 256 L 489 253 L 501 253 L 501 256 L 512 256 L 512 245 L 515 245 L 515 233 L 512 233 L 512 221 L 515 221 L 515 209 L 512 209 L 512 198 L 262 198 Z" id="left_outsideCutPath" stroke="#FF0000" stroke-width="0.05" style="stroke:#FF0000;stroke-width:0.05" vector-effect="non-scaling-stroke"/><path d="M 391.126 225.173 L 391.126 225.904 L 389.546 225.904 L 389.546 231.381 L 388.606 231.381 L 388.606 225.904 L 387.496 225.904 L 387.496 225.479 L 388.606 225.139 L 388.606 224.794 Q 388.606 222.818 390.096 222.548 A 2.858 2.858 0 0 1 390.605 222.505 A 3.028 3.028 0 0 1 391.034 222.538 Q 391.242 222.568 391.474 222.625 A 6.086 6.086 0 0 1 391.761 222.704 L 391.517 223.457 Q 391.131 223.332 390.825 223.296 A 2.022 2.022 0 0 0 390.588 223.281 A 1.268 1.268 0 0 0 390.283 223.316 A 0.814 0.814 0 0 0 389.801 223.635 A 1.088 1.088 0 0 0 389.657 223.925 Q 389.546 224.255 389.546 224.771 L 389.546 225.173 L 391.126 225.173 Z M 386.725 227.852 L 386.725 228.447 L 382.449 228.447 A 3.774 3.774 0 0 0 382.515 229.079 Q 382.641 229.717 383.001 230.107 A 1.708 1.708 0 0 0 383.898 230.612 A 2.589 2.589 0 0 0 384.477 230.673 A 4.966 4.966 0 0 0 386.337 230.305 A 5.691 5.691 0 0 0 386.459 230.254 L 386.459 231.092 A 5.645 5.645 0 0 1 385.945 231.286 A 4.317 4.317 0 0 1 385.516 231.401 Q 385.17 231.474 384.714 231.49 A 7.66 7.66 0 0 1 384.443 231.494 A 3.654 3.654 0 0 1 383.528 231.386 A 2.587 2.587 0 0 1 382.271 230.656 A 2.767 2.767 0 0 1 381.609 229.44 Q 381.494 229.01 381.477 228.498 A 5.37 5.37 0 0 1 381.475 228.328 Q 381.475 227.105 381.966 226.291 A 2.784 2.784 0 0 1 382.214 225.944 A 2.409 2.409 0 0 1 383.97 225.068 A 3.324 3.324 0 0 1 384.199 225.06 A 2.865 2.865 0 0 1 385.006 225.168 A 2.18 2.18 0 0 1 386.046 225.827 A 2.629 2.629 0 0 1 386.641 227.029 A 3.827 3.827 0 0 1 386.725 227.852 Z M 395.114 230.605 L 395.114 231.324 A 0.925 0.925 0 0 1 395.004 231.368 Q 394.868 231.413 394.663 231.446 A 4.075 4.075 0 0 1 394.398 231.481 Q 394.272 231.493 394.16 231.494 A 2.409 2.409 0 0 1 394.128 231.494 Q 392.692 231.494 392.401 230.287 A 2.955 2.955 0 0 1 392.327 229.597 L 392.327 225.904 L 391.438 225.904 L 391.438 225.451 L 392.327 225.06 L 392.724 223.735 L 393.267 223.735 L 393.267 225.173 L 395.068 225.173 L 395.068 225.904 L 393.267 225.904 L 393.267 229.557 A 1.893 1.893 0 0 0 393.295 229.89 Q 393.327 230.072 393.399 230.217 A 0.912 0.912 0 0 0 393.533 230.418 A 0.873 0.873 0 0 0 394.07 230.704 A 1.257 1.257 0 0 0 394.264 230.718 A 3.088 3.088 0 0 0 394.717 230.686 A 2.85 2.85 0 0 0 394.746 230.682 Q 394.967 230.646 395.101 230.609 A 1.412 1.412 0 0 0 395.114 230.605 Z M 379.826 222.568 L 379.826 231.381 L 378.886 231.381 L 378.886 222.568 L 379.826 222.568 Z M 382.472 227.682 L 385.717 227.682 Q 385.717 227.081 385.536 226.67 A 1.455 1.455 0 0 0 385.321 226.32 A 1.288 1.288 0 0 0 384.545 225.879 A 1.932 1.932 0 0 0 384.188 225.847 A 1.853 1.853 0 0 0 383.652 225.921 A 1.432 1.432 0 0 0 382.996 226.334 A 1.857 1.857 0 0 0 382.626 226.957 Q 382.533 227.214 382.49 227.522 A 3.552 3.552 0 0 0 382.472 227.682 Z" id="left_labelLayer" stroke="#777777" fill="#777777" style="stroke:#777777;fill:#777777" vector-effect="non-scaling-stroke"/><path d="M 0 137 L 0 148 L 3 148 L 3 160 L 0 160 L 0 172 L 3 172 L 3 184 L 0 184 L 0 195 L 14 195 L 14 192 L 26 192 L 26 195 L 38 195 L 38 192 L 50 192 L 50 195 L 62 195 L 62 192 L 74 192 L 74 195 L 86 195 L 86 192 L 98 192 L 98 195 L 110 195 L 110 192 L 122 192 L 122 195 L 134 195 L 134 192 L 146 192 L 146 195 L 158 195 L 158 192 L 170 192 L 170 195 L 182 195 L 182 192 L 194 192 L 194 195 L 206 195 L 206 192 L 218 192 L 218 195 L 230 195 L 230 192 L 242 192 L 242 195 L 256 195 L 256 184 L 253 184 L 253 172 L 256 172 L 256 160 L 253 160 L 253 148 L 256 148 L 256 137 L 0 137 Z" id="back_outsideCutPath" stroke="#FF0000" stroke-width="0.05" style="stroke:#FF0000;stroke-width:0.05" vector-effect="non-scaling-stroke"/><path d="M 135.941 167.172 L 135.986 167.172 A 5.566 5.566 0 0 1 136.124 166.986 Q 136.282 166.78 136.509 166.517 A 20.202 20.202 0 0 1 136.728 166.266 L 138.733 164.142 L 139.849 164.142 L 137.334 166.787 L 140.025 170.35 L 138.886 170.35 L 136.694 167.416 L 135.986 168.028 L 135.986 170.35 L 135.057 170.35 L 135.057 161.537 L 135.986 161.537 L 135.986 166.21 Q 135.986 166.515 135.943 167.149 A 39.499 39.499 0 0 1 135.941 167.172 Z M 116.915 169.551 L 116.847 169.551 L 116.649 170.35 L 115.975 170.35 L 115.975 161.537 L 116.915 161.537 L 116.915 163.678 Q 116.915 164.374 116.873 164.932 A 11.704 11.704 0 0 1 116.87 164.969 L 116.915 164.969 A 2.138 2.138 0 0 1 118.476 164.063 A 3.211 3.211 0 0 1 118.864 164.04 A 2.874 2.874 0 0 1 119.673 164.148 A 2.151 2.151 0 0 1 120.764 164.876 A 2.771 2.771 0 0 1 121.25 165.811 Q 121.369 166.197 121.414 166.659 A 6.035 6.035 0 0 1 121.441 167.24 Q 121.441 168.319 121.101 169.059 A 2.643 2.643 0 0 1 120.758 169.616 A 2.226 2.226 0 0 1 119.176 170.448 A 3.189 3.189 0 0 1 118.864 170.463 A 2.852 2.852 0 0 1 118.147 170.376 A 2.481 2.481 0 0 1 117.757 170.239 A 2.082 2.082 0 0 1 116.915 169.551 Z M 127.598 170.35 L 126.901 170.35 L 126.714 169.466 L 126.669 169.466 A 3.898 3.898 0 0 1 126.354 169.819 Q 126.184 169.986 126.015 170.102 A 1.732 1.732 0 0 1 125.743 170.256 Q 125.281 170.463 124.59 170.463 A 2.885 2.885 0 0 1 124.003 170.407 Q 123.644 170.332 123.369 170.159 A 1.619 1.619 0 0 1 123.143 169.987 A 1.545 1.545 0 0 1 122.677 169.172 A 2.366 2.366 0 0 1 122.619 168.634 Q 122.619 166.753 125.627 166.663 L 126.68 166.629 L 126.68 166.243 A 2.701 2.701 0 0 0 126.654 165.853 Q 126.625 165.653 126.563 165.493 A 1.049 1.049 0 0 0 126.366 165.164 Q 126.115 164.887 125.625 164.83 A 2.323 2.323 0 0 0 125.361 164.816 A 3.061 3.061 0 0 0 124.656 164.904 Q 124.333 164.981 123.981 165.124 A 6.297 6.297 0 0 0 123.605 165.292 L 123.316 164.573 A 4.335 4.335 0 0 1 124.153 164.229 A 4.934 4.934 0 0 1 124.321 164.182 Q 124.868 164.04 125.417 164.04 A 3.971 3.971 0 0 1 126.022 164.083 Q 126.333 164.131 126.581 164.233 A 1.6 1.6 0 0 1 127.063 164.533 A 1.489 1.489 0 0 1 127.447 165.126 Q 127.598 165.535 127.598 166.113 L 127.598 170.35 Z M 133.675 164.352 L 133.387 165.15 A 4.183 4.183 0 0 0 132.933 164.999 A 4.996 4.996 0 0 0 132.707 164.944 A 3.884 3.884 0 0 0 132.411 164.889 Q 132.267 164.868 132.139 164.863 A 2.084 2.084 0 0 0 132.055 164.861 Q 130.375 164.861 130.187 166.765 A 5.195 5.195 0 0 0 130.164 167.274 Q 130.164 168.025 130.362 168.547 A 1.95 1.95 0 0 0 130.625 169.03 A 1.493 1.493 0 0 0 131.593 169.608 A 2.275 2.275 0 0 0 131.993 169.642 A 3.936 3.936 0 0 0 133.079 169.484 A 4.86 4.86 0 0 0 133.585 169.308 L 133.585 170.14 A 2.674 2.674 0 0 1 132.93 170.372 Q 132.628 170.439 132.277 170.457 A 5.156 5.156 0 0 1 132.016 170.463 A 3.514 3.514 0 0 1 131.161 170.365 A 2.383 2.383 0 0 1 129.929 169.633 Q 129.29 168.917 129.203 167.686 A 5.685 5.685 0 0 1 129.189 167.286 A 5.188 5.188 0 0 1 129.27 166.342 Q 129.435 165.45 129.94 164.878 A 2.435 2.435 0 0 1 131.273 164.112 A 3.691 3.691 0 0 1 132.078 164.029 A 4.243 4.243 0 0 1 132.973 164.125 Q 133.416 164.22 133.67 164.349 A 1.384 1.384 0 0 1 133.675 164.352 Z M 118.728 164.827 A 2.642 2.642 0 0 0 118.216 164.874 Q 117.642 164.987 117.34 165.38 Q 116.967 165.865 116.922 166.934 A 7.244 7.244 0 0 0 116.915 167.24 Q 116.915 168.352 117.23 168.926 A 1.418 1.418 0 0 0 117.352 169.112 Q 117.743 169.618 118.557 169.67 A 3.023 3.023 0 0 0 118.751 169.676 A 1.874 1.874 0 0 0 119.283 169.605 A 1.352 1.352 0 0 0 120.042 169.044 Q 120.467 168.413 120.467 167.229 A 5.555 5.555 0 0 0 120.433 166.596 Q 120.354 165.904 120.085 165.486 A 1.56 1.56 0 0 0 120.042 165.422 A 1.371 1.371 0 0 0 119.169 164.87 A 2.175 2.175 0 0 0 118.728 164.827 Z M 126.658 167.858 L 126.658 167.297 L 125.717 167.337 Q 124.781 167.37 124.281 167.59 A 1.444 1.444 0 0 0 124.1 167.685 A 1.003 1.003 0 0 0 123.622 168.413 A 1.485 1.485 0 0 0 123.605 168.645 A 1.344 1.344 0 0 0 123.638 168.953 Q 123.694 169.19 123.843 169.353 A 0.837 0.837 0 0 0 123.913 169.421 Q 124.18 169.651 124.63 169.682 A 2.115 2.115 0 0 0 124.777 169.687 A 2.589 2.589 0 0 0 125.336 169.63 Q 125.827 169.522 126.156 169.206 Q 126.655 168.727 126.658 167.867 A 2.971 2.971 0 0 0 126.658 167.858 Z" id="back_labelLayer" stroke="#777777" fill="#777777" style="stroke:#777777;fill:#777777" vector-effect="non-scaling-stroke"/><path d="M 262 137 L 262 148 L 259 148 L 259 160 L 262 160 L 262 172 L 259 172 L 259 184 L 262 184 L 262 195 L 273 195 L 273 192 L 285 192 L 285 195 L 297 195 L 297 192 L 309 192 L 309 195 L 321 195 L 321 192 L 333 192 L 333 195 L 345 195 L 345 192 L 357 192 L 357 195 L 369 195 L 369 192 L 381 192 L 381 195 L 393 195 L 393 192 L 405 192 L 405 195 L 417 195 L 417 192 L 429 192 L 429 195 L 441 195 L 441 192 L 453 192 L 453 195 L 465 195 L 465 192 L 477 192 L 477 195 L 489 195 L 489 192 L 501 192 L 501 195 L 512 195 L 512 184 L 515 184 L 515 172 L 512 172 L 512 160 L 515 160 L 515 148 L 512 148 L 512 137 L 262 137 Z" id="right_outsideCutPath" stroke="#FF0000" stroke-width="0.05" style="stroke:#FF0000;stroke-width:0.05" vector-effect="non-scaling-stroke"/><path d="M 394.213 169.013 L 393.273 169.013 L 393.273 164.997 Q 393.273 164.514 393.133 164.186 A 1.118 1.118 0 0 0 392.927 163.865 Q 392.648 163.562 392.112 163.504 A 2.493 2.493 0 0 0 391.846 163.491 A 2.845 2.845 0 0 0 391.314 163.537 Q 390.733 163.648 390.415 164.023 Q 389.965 164.556 389.965 165.768 L 389.965 169.013 L 389.025 169.013 L 389.025 160.2 L 389.965 160.2 L 389.965 162.868 A 8.458 8.458 0 0 1 389.959 163.193 Q 389.953 163.345 389.942 163.476 A 3.678 3.678 0 0 1 389.92 163.666 L 389.976 163.666 A 1.879 1.879 0 0 1 390.635 163.033 A 2.295 2.295 0 0 1 390.767 162.961 Q 391.279 162.703 391.936 162.703 Q 392.685 162.703 393.188 162.938 A 1.695 1.695 0 0 1 393.644 163.244 Q 394.086 163.665 394.185 164.469 A 4.066 4.066 0 0 1 394.213 164.963 L 394.213 169.013 Z M 385.604 162.805 L 387.75 162.805 L 387.75 163.4 L 386.601 163.536 A 1.528 1.528 0 0 1 386.733 163.733 Q 386.814 163.874 386.884 164.054 Q 387.008 164.374 387.008 164.777 A 2.155 2.155 0 0 1 386.91 165.445 A 1.743 1.743 0 0 1 386.385 166.232 Q 385.824 166.722 384.886 166.771 A 4.084 4.084 0 0 1 384.675 166.776 Q 384.397 166.776 384.154 166.731 A 1.673 1.673 0 0 0 383.884 166.905 Q 383.745 167.018 383.664 167.146 A 0.707 0.707 0 0 0 383.553 167.529 A 0.487 0.487 0 0 0 383.578 167.689 Q 383.623 167.82 383.75 167.898 A 0.522 0.522 0 0 0 383.763 167.906 Q 383.932 168.004 384.295 168.023 A 3.577 3.577 0 0 0 384.482 168.028 L 385.581 168.028 Q 386.589 168.028 387.13 168.453 A 1.376 1.376 0 0 1 387.641 169.329 A 2.066 2.066 0 0 1 387.671 169.687 Q 387.671 170.698 386.876 171.238 A 2.236 2.236 0 0 1 386.844 171.259 A 2.82 2.82 0 0 1 386.117 171.589 Q 385.759 171.698 385.322 171.75 A 7.452 7.452 0 0 1 384.431 171.8 A 5.268 5.268 0 0 1 383.725 171.756 Q 383.366 171.707 383.073 171.605 A 2.185 2.185 0 0 1 382.554 171.347 Q 381.937 170.923 381.897 170.172 A 1.985 1.985 0 0 1 381.894 170.067 Q 381.894 169.5 382.256 169.087 A 1.642 1.642 0 0 1 382.82 168.676 A 2.327 2.327 0 0 1 383.276 168.526 A 0.976 0.976 0 0 1 382.897 168.22 A 1.158 1.158 0 0 1 382.877 168.192 A 0.872 0.872 0 0 1 382.717 167.721 A 1.08 1.08 0 0 1 382.715 167.665 A 1.075 1.075 0 0 1 382.769 167.319 A 0.953 0.953 0 0 1 382.896 167.07 Q 383.033 166.878 383.29 166.695 A 2.954 2.954 0 0 1 383.468 166.578 A 1.648 1.648 0 0 1 382.752 166.004 A 2.043 2.043 0 0 1 382.684 165.904 A 1.944 1.944 0 0 1 382.386 164.967 A 2.372 2.372 0 0 1 382.381 164.816 A 2.717 2.717 0 0 1 382.452 164.174 A 1.787 1.787 0 0 1 382.993 163.244 Q 383.521 162.767 384.43 162.702 A 4.153 4.153 0 0 1 384.726 162.692 A 3.604 3.604 0 0 1 385.203 162.722 A 2.745 2.745 0 0 1 385.604 162.805 Z M 398.999 168.237 L 398.999 168.957 A 0.925 0.925 0 0 1 398.89 169 Q 398.753 169.045 398.549 169.078 A 4.075 4.075 0 0 1 398.283 169.113 Q 398.158 169.125 398.046 169.126 A 2.409 2.409 0 0 1 398.014 169.127 Q 396.577 169.127 396.286 167.919 A 2.955 2.955 0 0 1 396.213 167.229 L 396.213 163.536 L 395.323 163.536 L 395.323 163.083 L 396.213 162.692 L 396.609 161.367 L 397.153 161.367 L 397.153 162.805 L 398.954 162.805 L 398.954 163.536 L 397.153 163.536 L 397.153 167.189 A 1.893 1.893 0 0 0 397.18 167.522 Q 397.213 167.704 397.284 167.849 A 0.912 0.912 0 0 0 397.419 168.05 A 0.873 0.873 0 0 0 397.956 168.336 A 1.257 1.257 0 0 0 398.15 168.351 A 3.088 3.088 0 0 0 398.602 168.318 A 2.85 2.85 0 0 0 398.631 168.314 Q 398.853 168.279 398.987 168.241 A 1.412 1.412 0 0 0 398.999 168.237 Z M 378.575 162.76 L 378.444 163.632 A 4.144 4.144 0 0 0 378.146 163.577 Q 377.998 163.556 377.866 163.55 A 2.205 2.205 0 0 0 377.765 163.547 A 1.629 1.629 0 0 0 376.561 164.067 A 2.229 2.229 0 0 0 376.476 164.159 A 2.147 2.147 0 0 0 375.958 165.365 A 2.854 2.854 0 0 0 375.941 165.683 L 375.941 169.013 L 375.001 169.013 L 375.001 162.805 L 375.777 162.805 L 375.884 163.955 L 375.93 163.955 A 3.175 3.175 0 0 1 376.285 163.448 A 2.425 2.425 0 0 1 376.762 163.021 A 1.874 1.874 0 0 1 377.833 162.692 A 4.317 4.317 0 0 1 378.219 162.709 A 3.15 3.15 0 0 1 378.575 162.76 Z M 380.676 162.805 L 380.676 169.013 L 379.736 169.013 L 379.736 162.805 L 380.676 162.805 Z M 385.281 168.872 L 384.154 168.872 A 2.161 2.161 0 0 0 383.764 168.905 Q 383.543 168.945 383.368 169.036 A 1.101 1.101 0 0 0 383.157 169.178 A 0.991 0.991 0 0 0 382.832 169.739 A 1.505 1.505 0 0 0 382.8 170.055 A 0.944 0.944 0 0 0 382.862 170.406 Q 382.952 170.632 383.169 170.784 A 1.103 1.103 0 0 0 383.225 170.82 A 1.506 1.506 0 0 0 383.595 170.979 Q 383.947 171.081 384.443 171.081 A 6.321 6.321 0 0 0 385.06 171.053 Q 385.679 170.992 386.067 170.798 A 1.562 1.562 0 0 0 386.196 170.727 A 1.372 1.372 0 0 0 386.514 170.46 A 1.028 1.028 0 0 0 386.765 169.767 A 1.272 1.272 0 0 0 386.742 169.514 Q 386.68 169.209 386.453 169.067 A 0.892 0.892 0 0 0 386.242 168.975 Q 385.906 168.872 385.281 168.872 Z M 383.31 164.794 A 1.835 1.835 0 0 0 383.348 165.178 Q 383.399 165.417 383.519 165.596 A 1.006 1.006 0 0 0 383.678 165.779 A 1.215 1.215 0 0 0 384.167 166.045 Q 384.353 166.098 384.576 166.11 A 2.421 2.421 0 0 0 384.703 166.113 A 2.048 2.048 0 0 0 385.24 166.049 Q 385.853 165.882 386.019 165.28 A 1.904 1.904 0 0 0 386.08 164.777 A 2.022 2.022 0 0 0 386.011 164.223 Q 385.833 163.602 385.202 163.437 A 2.045 2.045 0 0 0 384.686 163.378 A 1.973 1.973 0 0 0 384.284 163.416 Q 384.038 163.467 383.85 163.587 A 1.082 1.082 0 0 0 383.667 163.734 Q 383.31 164.091 383.31 164.794 Z M 379.67 160.951 A 1.042 1.042 0 0 0 379.657 161.123 A 1.11 1.11 0 0 0 379.661 161.229 Q 379.671 161.324 379.697 161.402 A 0.485 0.485 0 0 0 379.815 161.596 A 0.528 0.528 0 0 0 380.006 161.718 A 0.597 0.597 0 0 0 380.212 161.752 A 0.549 0.549 0 0 0 380.602 161.596 Q 380.767 161.44 380.767 161.123 A 1.076 1.076 0 0 0 380.762 161.021 Q 380.753 160.929 380.728 160.853 A 0.475 0.475 0 0 0 380.602 160.653 A 0.554 0.554 0 0 0 380.212 160.5 Q 379.974 160.5 379.815 160.65 A 0.44 0.44 0 0 0 379.718 160.788 Q 379.685 160.86 379.67 160.951 Z" id="right_labelLayer" stroke="#777777" fill="#777777" style="stroke:#777777;fill:#777777" vector-effect="non-scaling-stroke"/><path d="M 521 3 L 521 14 L 518 14 L 518 26 L 521 26 L 521 38 L 518 38 L 518 50 L 521 50 L 521 62 L 518 62 L 518 74 L 521 74 L 521 86 L 518 86 L 518 98 L 521 98 L 521 110 L 518 110 L 518 122 L 521 122 L 521 134 L 518 134 L 518 146 L 521 146 L 521 158 L 518 158 L 518 170 L 521 170 L 521 182 L 518 182 L 518 194 L 521 194 L 521 206 L 518 206 L 518 218 L 521 218 L 521 230 L 518 230 L 518 242 L 521 242 L 521 253 L 532 253 L 532 256 L 544 256 L 544 253 L 556 253 L 556 256 L 568 256 L 568 253 L 580 253 L 580 256 L 592 256 L 592 253 L 604 253 L 604 256 L 616 256 L 616 253 L 628 253 L 628 256 L 640 256 L 640 253 L 652 253 L 652 256 L 664 256 L 664 253 L 676 253 L 676 256 L 688 256 L 688 253 L 700 253 L 700 256 L 712 256 L 712 253 L 724 253 L 724 256 L 736 256 L 736 253 L 748 253 L 748 256 L 760 256 L 760 253 L 771 253 L 771 242 L 774 242 L 774 230 L 771 230 L 771 218 L 774 218 L 774 206 L 771 206 L 771 194 L 774 194 L 774 182 L 771 182 L 771 170 L 774 170 L 774 158 L 771 158 L 771 146 L 774 146 L 774 134 L 771 134 L 771 122 L 774 122 L 774 110 L 771 110 L 771 98 L 774 98 L 774 86 L 771 86 L 771 74 L 774 74 L 774 62 L 771 62 L 771 50 L 774 50 L 774 38 L 771 38 L 771 26 L 774 26 L 774 14 L 771 14 L 771 3 L 760 3 L 760 0 L 748 0 L 748 3 L 736 3 L 736 0 L 724 0 L 724 3 L 712 3 L 712 0 L 700 0 L 700 3 L 688 3 L 688 0 L 676 0 L 676 3 L 664 3 L 664 0 L 652 0 L 652 3 L 640 3 L 640 0 L 628 0 L 628 3 L 616 3 L 616 0 L 604 0 L 604 3 L 592 3 L 592 0 L 580 0 L 580 3 L 568 3 L 568 0 L 556 0 L 556 3 L 544 3 L 544 0 L 532 0 L 532 3 L 521 3 Z" id="bottom_outsideCutPath" stroke="#FF0000" stroke-width="0.05" style="stroke:#FF0000;stroke-width:0.05" vector-effect="non-scaling-stroke"/><path d="M 730.225 147.199 L 726.075 147.199 L 726.075 129.374 A 12.243 12.243 0 0 0 725.951 127.574 Q 725.815 126.655 725.525 125.914 A 5.015 5.015 0 0 0 724.675 124.462 Q 723.45 123.029 721.04 122.85 A 9.633 9.633 0 0 0 720.325 122.824 A 10.679 10.679 0 0 0 718.152 123.031 Q 716.86 123.3 715.886 123.918 A 5.496 5.496 0 0 0 714.6 125.049 A 6.858 6.858 0 0 0 713.437 127.154 Q 712.75 129.081 712.75 131.899 L 712.75 147.199 L 708.6 147.199 L 708.6 129.374 A 12.243 12.243 0 0 0 708.476 127.574 Q 708.34 126.655 708.05 125.914 A 5.015 5.015 0 0 0 707.2 124.462 A 4.353 4.353 0 0 0 705.198 123.161 Q 704.173 122.824 702.825 122.824 A 10.307 10.307 0 0 0 700.693 123.03 Q 698.387 123.518 697.112 125.162 A 6.959 6.959 0 0 0 696.08 127.122 Q 695.3 129.33 695.3 132.824 L 695.3 147.199 L 691.15 147.199 L 691.15 119.799 L 694.525 119.799 L 695.2 123.549 L 695.4 123.549 Q 696.575 121.549 698.712 120.424 A 9.853 9.853 0 0 1 702.604 119.333 A 11.9 11.9 0 0 1 703.5 119.299 A 13.587 13.587 0 0 1 706.558 119.618 Q 708.439 120.053 709.751 121.083 A 7.085 7.085 0 0 1 711.9 123.949 L 712.1 123.949 A 8.665 8.665 0 0 1 715.364 120.709 A 10.411 10.411 0 0 1 715.65 120.549 A 10.504 10.504 0 0 1 719.503 119.377 A 13.097 13.097 0 0 1 720.95 119.299 A 14.426 14.426 0 0 1 723.566 119.521 Q 725.021 119.79 726.157 120.384 A 6.839 6.839 0 0 1 727.912 121.687 A 7.146 7.146 0 0 1 729.447 124.197 Q 730.225 126.279 730.225 129.324 L 730.225 147.199 Z M 565.925 143.674 L 565.625 143.674 L 564.75 147.199 L 561.775 147.199 L 561.775 108.299 L 565.925 108.299 L 565.925 117.749 Q 565.925 120.822 565.738 123.286 A 51.821 51.821 0 0 1 565.725 123.449 L 565.925 123.449 A 9.435 9.435 0 0 1 572.812 119.449 A 14.174 14.174 0 0 1 574.525 119.349 A 12.684 12.684 0 0 1 578.095 119.826 A 9.495 9.495 0 0 1 582.912 123.037 Q 585.9 126.724 585.9 133.474 A 24.332 24.332 0 0 1 585.577 137.568 Q 585.204 139.75 584.4 141.5 A 11.665 11.665 0 0 1 582.887 143.962 A 9.824 9.824 0 0 1 575.905 147.633 A 14.075 14.075 0 0 1 574.525 147.699 A 12.588 12.588 0 0 1 571.362 147.314 A 10.953 10.953 0 0 1 569.637 146.712 Q 567.425 145.724 565.925 143.674 Z M 636.675 143.774 L 636.675 146.949 A 4.082 4.082 0 0 1 636.191 147.141 Q 635.59 147.341 634.687 147.487 Q 633.375 147.699 632.325 147.699 A 10.839 10.839 0 0 1 629.131 147.269 Q 625.62 146.186 624.701 142.372 A 13.045 13.045 0 0 1 624.375 139.324 L 624.375 123.024 L 620.45 123.024 L 620.45 121.024 L 624.375 119.299 L 626.125 113.449 L 628.525 113.449 L 628.525 119.799 L 636.475 119.799 L 636.475 123.024 L 628.525 123.024 L 628.525 139.149 A 8.357 8.357 0 0 0 628.645 140.617 Q 628.789 141.422 629.105 142.06 A 4.025 4.025 0 0 0 629.7 142.949 A 3.855 3.855 0 0 0 632.07 144.211 A 5.547 5.547 0 0 0 632.925 144.274 A 13.629 13.629 0 0 0 634.921 144.132 A 12.562 12.562 0 0 0 635.05 144.112 Q 636.075 143.949 636.675 143.774 Z M 654.75 143.774 L 654.75 146.949 A 4.082 4.082 0 0 1 654.266 147.141 Q 653.665 147.341 652.762 147.487 Q 651.45 147.699 650.4 147.699 A 10.839 10.839 0 0 1 647.206 147.269 Q 643.695 146.186 642.776 142.372 A 13.045 13.045 0 0 1 642.45 139.324 L 642.45 123.024 L 638.525 123.024 L 638.525 121.024 L 642.45 119.299 L 644.2 113.449 L 646.6 113.449 L 646.6 119.799 L 654.55 119.799 L 654.55 123.024 L 646.6 123.024 L 646.6 139.149 A 8.357 8.357 0 0 0 646.72 140.617 Q 646.864 141.422 647.18 142.06 A 4.025 4.025 0 0 0 647.775 142.949 A 3.855 3.855 0 0 0 650.145 144.211 A 5.547 5.547 0 0 0 651 144.274 A 13.629 13.629 0 0 0 652.996 144.132 A 12.562 12.562 0 0 0 653.125 144.112 Q 654.15 143.949 654.75 143.774 Z M 613.425 143.937 A 11.577 11.577 0 0 0 614.803 142.043 Q 616.8 138.628 616.8 133.474 A 24.356 24.356 0 0 0 616.791 132.816 Q 616.627 126.754 613.412 123.124 A 10.864 10.864 0 0 0 608.369 119.871 A 13.945 13.945 0 0 0 604.275 119.299 A 16.118 16.118 0 0 0 601.38 119.548 A 10.977 10.977 0 0 0 594.975 123.037 A 11.465 11.465 0 0 0 593.567 124.989 Q 592.482 126.88 592.003 129.307 A 21.548 21.548 0 0 0 591.625 133.474 A 20.761 20.761 0 0 0 591.886 136.837 A 15.352 15.352 0 0 0 593.175 141.024 Q 594.725 144.249 597.575 145.974 A 11.556 11.556 0 0 0 600.227 147.154 A 13.327 13.327 0 0 0 604.1 147.699 Q 610.05 147.699 613.425 143.937 Z M 680.5 143.937 A 11.577 11.577 0 0 0 681.878 142.043 Q 683.875 138.628 683.875 133.474 A 24.356 24.356 0 0 0 683.866 132.816 Q 683.702 126.754 680.487 123.124 A 10.864 10.864 0 0 0 675.444 119.871 A 13.945 13.945 0 0 0 671.35 119.299 A 16.118 16.118 0 0 0 668.455 119.548 A 10.977 10.977 0 0 0 662.05 123.037 A 11.465 11.465 0 0 0 660.642 124.989 Q 659.557 126.88 659.078 129.307 A 21.548 21.548 0 0 0 658.7 133.474 A 20.761 20.761 0 0 0 658.961 136.837 A 15.352 15.352 0 0 0 660.25 141.024 Q 661.8 144.249 664.65 145.974 A 11.556 11.556 0 0 0 667.302 147.154 A 13.327 13.327 0 0 0 671.175 147.699 Q 677.125 147.699 680.5 143.937 Z M 595.925 133.474 Q 595.925 138.724 598.025 141.474 A 6.802 6.802 0 0 0 602.455 144.083 A 10.307 10.307 0 0 0 604.2 144.224 Q 608.275 144.224 610.387 141.487 Q 611.958 139.451 612.361 136.012 A 21.86 21.86 0 0 0 612.5 133.474 A 20.707 20.707 0 0 0 612.304 130.524 Q 612.087 129.022 611.631 127.805 A 8.545 8.545 0 0 0 610.387 125.537 A 6.827 6.827 0 0 0 606.143 123.005 A 10.467 10.467 0 0 0 604.15 122.824 Q 600.075 122.824 598 125.499 A 8.581 8.581 0 0 0 596.666 128.077 Q 595.925 130.307 595.925 133.474 Z M 663 133.474 Q 663 138.724 665.1 141.474 A 6.802 6.802 0 0 0 669.53 144.083 A 10.307 10.307 0 0 0 671.275 144.224 Q 675.35 144.224 677.462 141.487 Q 679.033 139.451 679.436 136.012 A 21.86 21.86 0 0 0 679.575 133.474 A 20.707 20.707 0 0 0 679.379 130.524 Q 679.162 129.022 678.706 127.805 A 8.545 8.545 0 0 0 677.462 125.537 A 6.827 6.827 0 0 0 673.218 123.005 A 10.467 10.467 0 0 0 671.225 122.824 Q 667.15 122.824 665.075 125.499 A 8.581 8.581 0 0 0 663.741 128.077 Q 663 130.307 663 133.474 Z M 573.925 122.824 A 11.662 11.662 0 0 0 571.666 123.028 Q 570.38 123.282 569.403 123.854 A 5.519 5.519 0 0 0 567.8 125.262 Q 566.152 127.403 565.953 132.122 A 31.974 31.974 0 0 0 565.925 133.474 Q 565.925 139.249 567.85 141.737 A 6.021 6.021 0 0 0 570.904 143.798 Q 571.925 144.118 573.17 144.198 A 13.344 13.344 0 0 0 574.025 144.224 A 8.273 8.273 0 0 0 576.375 143.91 A 5.968 5.968 0 0 0 579.725 141.437 A 9.527 9.527 0 0 0 580.904 138.887 Q 581.274 137.677 581.447 136.21 A 23.779 23.779 0 0 0 581.6 133.424 Q 581.6 128.353 579.915 125.73 A 6.885 6.885 0 0 0 579.725 125.449 A 6.052 6.052 0 0 0 575.872 123.011 A 9.598 9.598 0 0 0 573.925 122.824 Z" id="bottom_labelLayer" stroke="#777777" fill="#777777" style="stroke:#777777;fill:#777777" vector-effect="non-scaling-stroke"/></g></svg>